<svg id="svg" version="1.1" xmlns="http://www.w3.org/2000/svg" xmlns:xlink="http://www.w3.org/1999/xlink" width="400" height="93.86666666666666" viewBox="0, 0, 400,93.86666666666666"><g id="svgg"><path id="path0" d="M341.667 3.001 L 341.667 6.002 357.792 5.959 L 373.917 5.917 373.967 2.958 L 374.018 0.000 357.842 0.000 L 341.667 0.000 341.667 3.001 " stroke="none" fill="#0c94d4" fill-rule="evenodd"></path><path id="path1" d="M24.667 24.167 C 24.667 24.442,24.599 24.667,24.516 24.667 C 24.433 24.667,24.313 25.042,24.250 25.500 C 24.187 25.958,24.068 26.333,23.986 26.333 C 23.904 26.333,23.789 26.633,23.731 27.000 C 23.672 27.367,23.559 27.667,23.479 27.667 C 23.399 27.667,23.333 27.812,23.333 27.990 C 23.333 28.168,23.265 28.356,23.181 28.408 C 23.097 28.459,22.978 28.801,22.917 29.168 C 22.855 29.534,22.740 29.833,22.662 29.833 C 22.584 29.833,22.470 30.171,22.408 30.583 C 22.346 30.996,22.229 31.333,22.148 31.333 C 22.066 31.333,22.000 31.521,22.000 31.750 C 22.000 31.979,21.935 32.167,21.855 32.167 C 21.775 32.167,21.661 32.467,21.603 32.833 C 21.544 33.200,21.430 33.500,21.350 33.500 C 21.270 33.500,21.154 33.837,21.092 34.250 C 21.030 34.662,20.909 35.000,20.823 35.000 C 20.737 35.000,20.667 35.188,20.667 35.417 C 20.667 35.646,20.601 35.833,20.521 35.833 C 20.441 35.833,20.328 36.133,20.269 36.500 C 20.211 36.867,20.097 37.167,20.017 37.167 C 19.937 37.167,19.818 37.523,19.753 37.958 C 19.687 38.394,19.580 38.787,19.514 38.833 C 19.329 38.962,18.833 40.299,18.833 40.670 C 18.833 40.852,18.765 41.000,18.681 41.000 C 18.598 41.000,18.476 41.319,18.411 41.708 C 18.346 42.098,18.240 42.454,18.176 42.500 C 17.994 42.631,17.500 43.972,17.500 44.337 C 17.500 44.518,17.435 44.667,17.355 44.667 C 17.275 44.667,17.161 44.967,17.103 45.333 C 17.044 45.700,16.922 46.000,16.831 46.000 C 16.741 46.000,16.667 46.183,16.667 46.407 C 16.667 46.631,16.598 46.856,16.515 46.908 C 16.431 46.959,16.312 47.301,16.250 47.668 C 16.188 48.034,16.076 48.333,16.000 48.333 C 15.924 48.333,15.812 48.633,15.750 49.000 C 15.688 49.367,15.569 49.667,15.485 49.667 C 15.402 49.667,15.333 49.850,15.333 50.073 C 15.333 50.297,15.263 50.524,15.176 50.577 C 15.090 50.631,14.969 51.010,14.907 51.421 C 14.846 51.831,14.730 52.167,14.650 52.167 C 14.570 52.167,14.456 52.467,14.397 52.833 C 14.339 53.200,14.225 53.500,14.145 53.500 C 14.065 53.500,14.000 53.688,14.000 53.917 C 14.000 54.146,13.932 54.333,13.848 54.333 C 13.764 54.333,13.645 54.633,13.583 55.000 C 13.521 55.367,13.407 55.667,13.329 55.667 C 13.251 55.667,13.136 56.004,13.075 56.417 C 13.013 56.829,12.896 57.167,12.814 57.167 C 12.733 57.167,12.667 57.354,12.667 57.583 C 12.667 57.813,12.601 58.000,12.521 58.000 C 12.441 58.000,12.328 58.300,12.269 58.667 C 12.211 59.033,12.097 59.333,12.017 59.333 C 11.937 59.333,11.821 59.669,11.759 60.079 C 11.698 60.490,11.577 60.869,11.490 60.923 C 11.404 60.976,11.333 61.165,11.333 61.343 C 11.333 61.521,11.268 61.667,11.188 61.667 C 11.108 61.667,10.995 61.967,10.936 62.333 C 10.877 62.700,10.762 63.000,10.680 63.000 C 10.598 63.000,10.480 63.375,10.417 63.833 C 10.354 64.292,10.234 64.667,10.151 64.667 C 10.068 64.667,10.000 64.771,10.000 64.898 C 10.000 65.025,9.888 65.343,9.751 65.606 C 9.614 65.869,9.502 66.252,9.501 66.458 C 9.500 66.665,9.430 66.833,9.344 66.833 C 9.257 66.833,9.136 67.171,9.075 67.583 C 9.013 67.996,8.896 68.333,8.814 68.333 C 8.733 68.333,8.667 68.437,8.667 68.564 C 8.667 68.691,8.555 69.010,8.418 69.273 C 8.281 69.535,8.168 69.919,8.168 70.125 C 8.167 70.331,8.092 70.500,8.000 70.500 C 7.908 70.500,7.833 70.657,7.833 70.850 C 7.833 71.161,7.553 71.936,7.174 72.672 C 7.102 72.813,6.988 73.174,6.922 73.475 C 6.856 73.776,6.697 74.224,6.569 74.470 C 6.440 74.715,6.335 75.085,6.334 75.292 C 6.334 75.498,6.258 75.667,6.167 75.667 C 6.075 75.667,6.000 75.812,6.000 75.990 C 6.000 76.168,5.929 76.357,5.843 76.411 C 5.757 76.464,5.636 76.844,5.574 77.254 C 5.513 77.664,5.397 78.000,5.316 78.000 C 5.236 78.000,5.123 78.300,5.064 78.667 C 5.005 79.033,4.892 79.333,4.812 79.333 C 4.732 79.333,4.667 79.521,4.667 79.750 C 4.667 79.979,4.598 80.167,4.515 80.167 C 4.431 80.167,4.312 80.467,4.250 80.833 C 4.188 81.200,4.077 81.500,4.004 81.500 C 3.931 81.500,3.821 81.838,3.759 82.250 C 3.697 82.663,3.576 83.000,3.490 83.000 C 3.404 83.000,3.333 83.188,3.333 83.417 C 3.333 83.646,3.268 83.833,3.188 83.833 C 3.108 83.833,2.995 84.133,2.936 84.500 C 2.877 84.867,2.762 85.167,2.680 85.167 C 2.598 85.167,2.480 85.542,2.417 86.000 C 2.354 86.458,2.234 86.833,2.151 86.833 C 2.068 86.833,2.000 86.979,2.000 87.157 C 2.000 87.335,1.925 87.527,1.833 87.583 C 1.742 87.640,1.666 87.813,1.666 87.968 C 1.665 88.123,1.552 88.466,1.414 88.730 C 1.276 88.995,1.117 89.501,1.060 89.855 C 1.004 90.210,0.892 90.500,0.812 90.500 C 0.732 90.500,0.667 90.601,0.667 90.724 C 0.667 90.848,0.559 91.167,0.427 91.433 C 0.295 91.699,0.135 92.312,0.072 92.795 L -0.044 93.673 3.853 93.628 L 7.750 93.583 7.803 93.125 C 7.832 92.873,7.916 92.667,7.990 92.667 C 8.064 92.667,8.172 92.367,8.231 92.000 C 8.289 91.633,8.411 91.333,8.502 91.333 C 8.593 91.333,8.667 91.146,8.667 90.917 C 8.667 90.688,8.742 90.500,8.833 90.500 C 8.925 90.500,9.000 90.331,9.001 90.125 C 9.002 89.919,9.115 89.534,9.253 89.270 C 9.390 89.005,9.549 88.499,9.606 88.145 C 9.663 87.790,9.775 87.500,9.855 87.500 C 9.935 87.500,10.000 87.354,10.000 87.177 C 10.000 86.999,10.075 86.807,10.167 86.750 C 10.258 86.693,10.334 86.520,10.334 86.365 C 10.335 86.210,10.448 85.867,10.586 85.603 C 10.724 85.339,10.883 84.832,10.940 84.478 C 10.996 84.123,11.108 83.833,11.188 83.833 C 11.268 83.833,11.333 83.646,11.333 83.417 C 11.333 83.188,11.399 83.000,11.479 83.000 C 11.559 83.000,11.672 82.700,11.731 82.333 C 11.789 81.967,11.903 81.667,11.983 81.667 C 12.063 81.667,12.179 81.329,12.241 80.917 C 12.303 80.504,12.424 80.167,12.510 80.167 C 12.596 80.167,12.667 79.979,12.667 79.750 C 12.667 79.521,12.735 79.333,12.819 79.333 C 12.902 79.333,13.021 79.033,13.083 78.667 C 13.145 78.300,13.256 78.000,13.329 78.000 C 13.402 78.000,13.516 77.644,13.581 77.208 C 13.646 76.773,13.753 76.379,13.819 76.333 C 14.004 76.205,14.500 74.867,14.500 74.497 C 14.500 74.315,14.568 74.167,14.652 74.167 C 14.736 74.167,14.855 73.867,14.917 73.500 C 14.979 73.133,15.098 72.833,15.181 72.833 C 15.265 72.833,15.333 72.688,15.333 72.510 C 15.333 72.332,15.404 72.143,15.490 72.089 C 15.577 72.036,15.698 71.656,15.759 71.246 C 15.821 70.836,15.928 70.500,15.998 70.500 C 16.067 70.500,16.172 70.200,16.231 69.833 C 16.289 69.467,16.411 69.167,16.502 69.167 C 16.593 69.167,16.667 68.979,16.667 68.750 C 16.667 68.521,16.733 68.333,16.814 68.333 C 16.896 68.333,17.013 67.996,17.075 67.583 C 17.136 67.171,17.248 66.833,17.322 66.833 C 17.397 66.833,17.505 66.533,17.564 66.167 C 17.623 65.800,17.745 65.500,17.835 65.500 C 17.926 65.500,18.000 65.317,18.000 65.093 C 18.000 64.869,18.071 64.643,18.157 64.589 C 18.243 64.536,18.364 64.156,18.426 63.746 C 18.487 63.336,18.603 63.000,18.684 63.000 C 18.764 63.000,18.877 62.700,18.936 62.333 C 18.995 61.967,19.108 61.667,19.188 61.667 C 19.268 61.667,19.333 61.479,19.333 61.250 C 19.333 61.021,19.400 60.833,19.481 60.833 C 19.563 60.833,19.678 60.574,19.738 60.257 C 19.797 59.940,19.955 59.471,20.089 59.215 C 20.222 58.959,20.332 58.581,20.332 58.375 C 20.333 58.169,20.408 58.000,20.500 58.000 C 20.592 58.000,20.667 57.813,20.667 57.583 C 20.667 57.354,20.732 57.167,20.812 57.167 C 20.892 57.167,21.005 56.867,21.064 56.500 C 21.123 56.133,21.238 55.833,21.320 55.833 C 21.402 55.833,21.520 55.458,21.583 55.000 C 21.646 54.542,21.766 54.167,21.849 54.167 C 21.932 54.167,22.000 54.017,22.000 53.833 C 22.000 53.650,22.068 53.500,22.152 53.500 C 22.236 53.500,22.355 53.200,22.417 52.834 C 22.478 52.468,22.591 52.130,22.667 52.083 C 22.742 52.037,22.858 51.680,22.923 51.291 C 22.988 50.902,23.093 50.546,23.157 50.500 C 23.340 50.369,23.833 49.028,23.833 48.663 C 23.833 48.482,23.899 48.333,23.979 48.333 C 24.059 48.333,24.172 48.033,24.231 47.667 C 24.289 47.300,24.411 47.000,24.502 47.000 C 24.593 47.000,24.667 46.859,24.667 46.686 C 24.667 46.513,24.779 46.157,24.916 45.894 C 25.053 45.631,25.165 45.248,25.166 45.042 C 25.166 44.835,25.232 44.667,25.312 44.667 C 25.392 44.667,25.505 44.367,25.564 44.000 C 25.623 43.633,25.745 43.333,25.835 43.333 C 25.926 43.333,26.000 43.150,26.000 42.927 C 26.000 42.703,26.071 42.476,26.157 42.423 C 26.243 42.369,26.364 41.990,26.426 41.579 C 26.487 41.169,26.598 40.833,26.671 40.833 C 26.744 40.833,26.855 40.533,26.917 40.167 C 26.979 39.800,27.098 39.500,27.181 39.500 C 27.265 39.500,27.333 39.354,27.333 39.177 C 27.333 38.999,27.404 38.809,27.490 38.756 C 27.577 38.703,27.698 38.323,27.759 37.913 C 27.821 37.502,27.937 37.167,28.017 37.167 C 28.097 37.167,28.211 36.867,28.269 36.500 C 28.328 36.133,28.441 35.833,28.521 35.833 C 28.601 35.833,28.667 35.721,28.667 35.583 C 28.667 35.016,28.970 35.388,29.075 36.083 C 29.136 36.496,29.248 36.833,29.322 36.833 C 29.396 36.833,29.500 37.101,29.553 37.429 C 29.663 38.106,30.026 39.000,30.192 39.000 C 30.252 39.000,30.354 39.375,30.417 39.833 C 30.480 40.292,30.599 40.667,30.682 40.667 C 30.765 40.667,30.834 40.835,30.834 41.042 C 30.835 41.248,30.947 41.631,31.084 41.894 C 31.221 42.157,31.333 42.475,31.333 42.602 C 31.333 42.729,31.404 42.833,31.490 42.833 C 31.576 42.833,31.697 43.171,31.759 43.583 C 31.821 43.996,31.938 44.333,32.019 44.333 C 32.100 44.333,32.167 44.482,32.167 44.663 C 32.167 45.034,32.662 46.372,32.847 46.500 C 32.913 46.546,33.021 46.940,33.086 47.375 C 33.151 47.810,33.262 48.167,33.331 48.167 C 33.401 48.167,33.507 48.410,33.566 48.707 C 33.698 49.366,34.041 50.167,34.192 50.167 C 34.252 50.167,34.354 50.542,34.417 51.000 C 34.480 51.458,34.599 51.833,34.682 51.833 C 34.765 51.833,34.834 52.002,34.834 52.208 C 34.835 52.415,34.947 52.798,35.084 53.061 C 35.221 53.323,35.333 53.642,35.333 53.769 C 35.333 53.896,35.400 54.000,35.481 54.000 C 35.562 54.000,35.679 54.337,35.741 54.750 C 35.803 55.163,35.924 55.500,36.010 55.500 C 36.096 55.500,36.167 55.648,36.167 55.830 C 36.167 56.201,36.662 57.538,36.847 57.667 C 36.913 57.712,37.021 58.106,37.086 58.542 C 37.151 58.977,37.264 59.333,37.338 59.333 C 37.411 59.333,37.521 59.633,37.583 59.999 C 37.645 60.365,37.764 60.707,37.848 60.759 C 37.932 60.811,38.000 60.999,38.000 61.177 C 38.000 61.354,38.070 61.500,38.156 61.500 C 38.243 61.500,38.364 61.837,38.425 62.250 C 38.487 62.663,38.598 63.000,38.671 63.000 C 38.744 63.000,38.855 63.300,38.917 63.667 C 38.979 64.033,39.098 64.333,39.181 64.333 C 39.265 64.333,39.333 64.521,39.333 64.750 C 39.333 64.979,39.400 65.167,39.481 65.167 C 39.562 65.167,39.679 65.502,39.741 65.913 C 39.802 66.323,39.923 66.703,40.010 66.756 C 40.096 66.809,40.167 66.980,40.168 67.135 C 40.168 67.290,40.281 67.631,40.418 67.894 C 40.555 68.157,40.667 68.475,40.667 68.602 C 40.667 68.729,40.735 68.833,40.818 68.833 C 40.901 68.833,41.020 69.208,41.083 69.667 C 41.146 70.125,41.265 70.500,41.347 70.500 C 41.429 70.500,41.544 70.800,41.603 71.167 C 41.661 71.533,41.775 71.833,41.855 71.833 C 41.935 71.833,42.000 72.021,42.000 72.250 C 42.000 72.479,42.066 72.667,42.148 72.667 C 42.229 72.667,42.346 73.004,42.408 73.417 C 42.470 73.829,42.584 74.167,42.662 74.167 C 42.740 74.167,42.855 74.467,42.917 74.833 C 42.979 75.200,43.098 75.500,43.181 75.500 C 43.265 75.500,43.333 75.688,43.333 75.917 C 43.333 76.146,43.401 76.333,43.484 76.333 C 43.567 76.333,43.687 76.708,43.750 77.167 C 43.813 77.625,43.932 78.000,44.014 78.000 C 44.096 78.000,44.211 78.300,44.269 78.667 C 44.328 79.033,44.441 79.333,44.521 79.333 C 44.601 79.333,44.667 79.521,44.667 79.750 C 44.667 79.979,44.737 80.167,44.823 80.167 C 44.909 80.167,45.030 80.504,45.092 80.917 C 45.154 81.329,45.270 81.667,45.350 81.667 C 45.430 81.667,45.544 81.967,45.603 82.333 C 45.661 82.700,45.775 83.000,45.855 83.000 C 45.935 83.000,46.000 83.188,46.000 83.417 C 46.000 83.646,46.065 83.833,46.145 83.833 C 46.225 83.833,46.337 84.123,46.394 84.478 C 46.451 84.832,46.610 85.339,46.747 85.603 C 46.885 85.867,46.998 86.210,46.999 86.365 C 47.000 86.520,47.075 86.693,47.167 86.750 C 47.258 86.807,47.333 86.999,47.333 87.177 C 47.333 87.354,47.401 87.500,47.484 87.500 C 47.567 87.500,47.687 87.875,47.750 88.333 C 47.813 88.792,47.923 89.167,47.994 89.167 C 48.066 89.167,48.172 89.467,48.231 89.833 C 48.289 90.200,48.411 90.500,48.502 90.500 C 48.593 90.500,48.667 90.688,48.667 90.917 C 48.667 91.146,48.733 91.333,48.814 91.333 C 48.896 91.333,49.013 91.671,49.075 92.083 C 49.136 92.496,49.257 92.833,49.344 92.833 C 49.430 92.833,49.500 93.021,49.500 93.250 L 49.500 93.667 53.500 93.667 C 57.944 93.667,57.843 93.696,57.251 92.561 C 57.114 92.298,57.002 91.915,57.001 91.708 C 57.000 91.502,56.925 91.333,56.833 91.333 C 56.742 91.333,56.667 91.146,56.667 90.917 C 56.667 90.688,56.592 90.500,56.500 90.500 C 56.408 90.500,56.333 90.331,56.332 90.125 C 56.332 89.919,56.222 89.541,56.089 89.285 C 55.955 89.029,55.797 88.559,55.737 88.241 C 55.678 87.923,55.562 87.622,55.481 87.572 C 55.400 87.521,55.333 87.335,55.333 87.157 C 55.333 86.979,55.258 86.833,55.167 86.833 C 55.075 86.833,55.000 86.665,54.999 86.458 C 54.998 86.252,54.885 85.867,54.747 85.603 C 54.610 85.339,54.451 84.832,54.394 84.478 C 54.337 84.123,54.225 83.833,54.145 83.833 C 54.065 83.833,54.000 83.646,54.000 83.417 C 54.000 83.188,53.932 83.000,53.848 83.000 C 53.764 83.000,53.645 82.700,53.583 82.333 C 53.521 81.967,53.411 81.667,53.338 81.667 C 53.264 81.667,53.154 81.329,53.092 80.917 C 53.030 80.504,52.909 80.167,52.823 80.167 C 52.737 80.167,52.667 79.979,52.667 79.750 C 52.667 79.521,52.601 79.333,52.521 79.333 C 52.441 79.333,52.328 79.033,52.269 78.667 C 52.211 78.300,52.098 78.000,52.019 78.000 C 51.940 78.000,51.827 77.697,51.768 77.326 C 51.709 76.955,51.587 76.505,51.497 76.326 C 51.407 76.147,51.258 75.851,51.167 75.669 C 51.075 75.487,51.000 75.243,50.999 75.127 C 50.998 75.011,50.885 74.700,50.747 74.436 C 50.610 74.172,50.451 73.666,50.394 73.311 C 50.337 72.957,50.225 72.667,50.145 72.667 C 50.065 72.667,50.000 72.479,50.000 72.250 C 50.000 72.021,49.935 71.833,49.855 71.833 C 49.775 71.833,49.661 71.533,49.603 71.167 C 49.544 70.800,49.430 70.500,49.350 70.500 C 49.270 70.500,49.154 70.164,49.093 69.754 C 49.031 69.344,48.910 68.964,48.824 68.911 C 48.737 68.857,48.667 68.668,48.667 68.490 C 48.667 68.312,48.601 68.167,48.521 68.167 C 48.441 68.167,48.328 67.867,48.269 67.500 C 48.211 67.133,48.096 66.833,48.014 66.833 C 47.932 66.833,47.813 66.458,47.750 66.000 C 47.687 65.542,47.567 65.167,47.484 65.167 C 47.401 65.167,47.333 64.979,47.333 64.750 C 47.333 64.521,47.265 64.333,47.181 64.333 C 47.098 64.333,46.979 64.033,46.917 63.667 C 46.855 63.300,46.740 63.000,46.662 63.000 C 46.584 63.000,46.470 62.663,46.408 62.250 C 46.346 61.837,46.229 61.500,46.148 61.500 C 46.066 61.500,46.000 61.313,46.000 61.083 C 46.000 60.854,45.935 60.667,45.855 60.667 C 45.775 60.667,45.661 60.367,45.603 60.000 C 45.544 59.633,45.430 59.333,45.350 59.333 C 45.270 59.333,45.154 58.998,45.093 58.587 C 45.031 58.177,44.910 57.797,44.824 57.744 C 44.737 57.691,44.667 57.501,44.667 57.323 C 44.667 57.146,44.592 57.000,44.500 57.000 C 44.408 57.000,44.333 56.831,44.332 56.625 C 44.332 56.419,44.219 56.034,44.081 55.770 C 43.943 55.505,43.784 54.999,43.727 54.645 C 43.670 54.290,43.559 54.000,43.479 54.000 C 43.399 54.000,43.333 53.813,43.333 53.583 C 43.333 53.354,43.265 53.167,43.181 53.167 C 43.098 53.167,42.979 52.867,42.917 52.500 C 42.855 52.133,42.744 51.833,42.671 51.833 C 42.598 51.833,42.487 51.496,42.425 51.083 C 42.364 50.671,42.243 50.333,42.156 50.333 C 42.070 50.333,42.000 50.146,42.000 49.917 C 42.000 49.688,41.926 49.500,41.835 49.500 C 41.745 49.500,41.623 49.200,41.564 48.833 C 41.505 48.467,41.400 48.167,41.331 48.167 C 41.261 48.167,41.154 47.831,41.093 47.421 C 41.031 47.010,40.910 46.631,40.824 46.577 C 40.737 46.524,40.667 46.297,40.667 46.073 C 40.667 45.850,40.593 45.667,40.502 45.667 C 40.411 45.667,40.289 45.367,40.231 45.000 C 40.172 44.633,40.063 44.333,39.989 44.333 C 39.915 44.333,39.803 43.996,39.741 43.583 C 39.679 43.171,39.562 42.833,39.481 42.833 C 39.400 42.833,39.333 42.646,39.333 42.417 C 39.333 42.188,39.259 42.000,39.169 42.000 C 39.078 42.000,38.956 41.700,38.897 41.333 C 38.839 40.967,38.734 40.667,38.664 40.667 C 38.595 40.667,38.487 40.331,38.426 39.921 C 38.364 39.510,38.243 39.131,38.157 39.077 C 38.071 39.024,38.000 38.835,38.000 38.657 C 38.000 38.479,37.932 38.333,37.848 38.333 C 37.764 38.333,37.645 38.033,37.583 37.667 C 37.521 37.300,37.411 37.000,37.338 37.000 C 37.264 37.000,37.154 36.664,37.093 36.254 C 37.031 35.844,36.910 35.464,36.824 35.411 C 36.737 35.357,36.667 35.131,36.667 34.907 C 36.667 34.683,36.593 34.500,36.502 34.500 C 36.411 34.500,36.289 34.200,36.231 33.833 C 36.172 33.467,36.067 33.167,35.998 33.167 C 35.928 33.167,35.821 32.829,35.759 32.417 C 35.697 32.004,35.576 31.667,35.490 31.667 C 35.404 31.667,35.333 31.479,35.333 31.250 C 35.333 31.021,35.259 30.833,35.169 30.833 C 35.078 30.833,34.956 30.533,34.897 30.167 C 34.839 29.800,34.735 29.500,34.667 29.500 C 34.598 29.500,34.494 29.197,34.435 28.826 C 34.376 28.455,34.260 28.024,34.178 27.868 C 33.794 27.139,33.500 26.335,33.500 26.016 C 33.500 25.824,33.434 25.667,33.354 25.667 C 33.274 25.667,33.160 25.423,33.100 25.126 C 33.041 24.829,32.901 24.379,32.789 24.126 L 32.585 23.667 28.626 23.667 L 24.667 23.667 24.667 24.167 M127.333 58.660 L 127.333 93.667 131.333 93.667 L 135.333 93.667 135.333 62.237 L 135.333 30.807 146.611 30.862 C 155.446 30.905,157.904 30.962,157.958 31.125 C 157.997 31.240,158.143 31.333,158.283 31.333 C 158.589 31.333,160.215 31.875,160.333 32.016 C 160.379 32.071,160.625 32.166,160.879 32.229 C 161.134 32.291,161.509 32.490,161.713 32.671 C 162.509 33.378,162.672 33.500,162.819 33.500 C 163.069 33.500,164.957 35.436,165.078 35.816 C 165.139 36.009,165.259 36.167,165.345 36.167 C 165.431 36.167,165.631 36.467,165.790 36.833 C 165.949 37.200,166.130 37.500,166.193 37.500 C 166.255 37.500,166.356 37.725,166.417 38.000 C 166.477 38.275,166.588 38.500,166.664 38.500 C 166.740 38.500,166.854 38.875,166.917 39.333 C 166.980 39.791,167.099 40.208,167.182 40.260 C 167.265 40.311,167.333 40.649,167.333 41.010 C 167.333 41.371,167.408 41.667,167.500 41.667 C 167.601 41.667,167.667 42.361,167.667 43.417 C 167.667 44.472,167.601 45.167,167.500 45.167 C 167.408 45.167,167.333 45.467,167.333 45.833 C 167.333 46.200,167.265 46.500,167.182 46.500 C 167.099 46.500,166.980 46.875,166.917 47.333 C 166.854 47.792,166.740 48.167,166.664 48.167 C 166.588 48.167,166.477 48.392,166.417 48.667 C 166.356 48.942,166.255 49.167,166.193 49.167 C 166.130 49.167,165.949 49.467,165.790 49.833 C 165.631 50.200,165.426 50.500,165.334 50.500 C 165.242 50.500,165.167 50.607,165.167 50.738 C 165.167 51.047,162.792 53.438,162.344 53.580 C 162.155 53.640,162.000 53.742,162.000 53.807 C 162.000 53.872,161.663 54.073,161.252 54.254 C 160.840 54.435,160.502 54.640,160.502 54.708 C 160.501 54.777,160.380 54.833,160.234 54.833 C 160.087 54.833,159.731 54.942,159.442 55.075 C 158.338 55.582,156.988 55.726,152.417 55.820 L 147.750 55.917 147.792 56.304 C 147.815 56.517,147.946 56.803,148.084 56.941 C 148.221 57.078,148.333 57.298,148.333 57.429 C 148.333 57.560,148.408 57.667,148.500 57.667 C 148.592 57.667,148.667 57.779,148.667 57.917 C 148.667 58.054,148.733 58.167,148.815 58.167 C 148.896 58.167,149.012 58.429,149.072 58.750 C 149.133 59.071,149.247 59.333,149.328 59.333 C 149.408 59.333,149.523 59.558,149.583 59.833 C 149.644 60.108,149.762 60.333,149.847 60.333 C 149.931 60.333,150.000 60.446,150.000 60.583 C 150.000 60.721,150.074 60.833,150.163 60.833 C 150.253 60.833,150.374 61.021,150.432 61.250 C 150.489 61.479,150.603 61.667,150.685 61.667 C 150.766 61.667,150.833 61.741,150.833 61.832 C 150.833 62.101,151.402 63.333,151.526 63.333 C 151.589 63.333,151.690 63.558,151.750 63.833 C 151.810 64.108,151.929 64.333,152.013 64.333 C 152.098 64.333,152.167 64.427,152.167 64.542 C 152.168 64.656,152.392 65.087,152.667 65.500 C 152.941 65.912,153.166 66.381,153.166 66.542 C 153.166 66.702,153.236 66.833,153.320 66.833 C 153.404 66.833,153.523 67.058,153.583 67.333 C 153.644 67.608,153.762 67.833,153.847 67.833 C 153.931 67.833,154.000 67.946,154.000 68.083 C 154.000 68.221,154.075 68.333,154.167 68.333 C 154.258 68.333,154.333 68.419,154.333 68.523 C 154.333 68.817,155.042 70.167,155.196 70.167 C 155.272 70.167,155.333 70.317,155.333 70.500 C 155.333 70.683,155.402 70.833,155.487 70.833 C 155.571 70.833,155.690 71.058,155.750 71.333 C 155.810 71.608,155.923 71.833,156.000 71.833 C 156.077 71.833,156.190 72.058,156.250 72.333 C 156.310 72.608,156.429 72.833,156.513 72.833 C 156.598 72.833,156.667 72.983,156.667 73.167 C 156.667 73.350,156.723 73.502,156.792 73.503 C 156.860 73.505,157.104 73.916,157.333 74.417 C 157.563 74.917,157.806 75.328,157.875 75.330 C 157.944 75.332,158.000 75.446,158.000 75.583 C 158.000 75.721,158.069 75.833,158.153 75.833 C 158.238 75.833,158.356 76.058,158.417 76.333 C 158.477 76.608,158.596 76.833,158.680 76.833 C 158.764 76.833,158.833 76.953,158.833 77.099 C 158.833 77.356,159.310 78.330,159.519 78.500 C 159.576 78.546,159.674 78.752,159.739 78.958 C 159.803 79.165,159.920 79.333,159.998 79.333 C 160.076 79.333,160.190 79.558,160.250 79.833 C 160.310 80.108,160.429 80.333,160.513 80.333 C 160.598 80.333,160.667 80.446,160.667 80.583 C 160.667 80.721,160.733 80.833,160.815 80.833 C 160.896 80.833,161.012 81.096,161.072 81.417 C 161.133 81.737,161.245 82.000,161.323 82.000 C 161.400 82.000,161.507 82.170,161.559 82.378 C 161.611 82.586,161.804 82.917,161.987 83.114 C 162.170 83.311,162.369 83.665,162.428 83.902 C 162.487 84.139,162.603 84.333,162.685 84.333 C 162.766 84.333,162.833 84.408,162.833 84.499 C 162.833 84.768,163.402 86.000,163.526 86.000 C 163.589 86.000,163.690 86.225,163.750 86.500 C 163.810 86.775,163.927 87.000,164.010 87.000 C 164.093 87.000,164.207 87.188,164.265 87.417 C 164.322 87.646,164.436 87.833,164.518 87.833 C 164.600 87.833,164.667 87.946,164.667 88.083 C 164.667 88.221,164.738 88.333,164.826 88.333 C 164.913 88.333,165.034 88.596,165.094 88.917 C 165.155 89.237,165.264 89.500,165.339 89.500 C 165.413 89.500,165.523 89.725,165.583 90.000 C 165.644 90.275,165.762 90.500,165.847 90.500 C 165.931 90.500,166.000 90.612,166.000 90.750 C 166.000 90.888,166.056 91.002,166.125 91.003 C 166.194 91.005,166.438 91.416,166.667 91.917 C 166.896 92.417,167.140 92.828,167.208 92.830 C 167.277 92.832,167.333 92.982,167.333 93.163 C 167.333 93.633,167.560 93.658,172.375 93.706 C 176.368 93.747,176.667 93.730,176.667 93.458 C 176.667 93.298,176.610 93.166,176.542 93.165 C 176.473 93.164,176.234 92.752,176.010 92.248 C 175.786 91.745,175.542 91.333,175.468 91.333 C 175.394 91.333,175.333 91.221,175.333 91.083 C 175.333 90.946,175.267 90.833,175.185 90.833 C 175.104 90.833,174.988 90.571,174.928 90.250 C 174.867 89.929,174.753 89.667,174.672 89.667 C 174.592 89.667,174.477 89.442,174.417 89.167 C 174.356 88.892,174.238 88.667,174.153 88.667 C 174.069 88.667,174.000 88.554,174.000 88.417 C 174.000 88.279,173.933 88.167,173.851 88.167 C 173.770 88.167,173.656 87.979,173.598 87.750 C 173.541 87.521,173.420 87.333,173.330 87.333 C 173.240 87.333,173.167 87.259,173.167 87.168 C 173.167 86.899,172.598 85.667,172.474 85.667 C 172.411 85.667,172.310 85.442,172.250 85.167 C 172.190 84.892,172.071 84.667,171.987 84.667 C 171.902 84.667,171.833 84.573,171.833 84.458 C 171.832 84.344,171.608 83.912,171.333 83.500 C 171.059 83.087,170.834 82.619,170.834 82.458 C 170.834 82.298,170.764 82.167,170.680 82.167 C 170.596 82.167,170.477 81.942,170.417 81.667 C 170.356 81.392,170.238 81.167,170.153 81.167 C 170.069 81.167,170.000 81.054,170.000 80.917 C 170.000 80.779,169.925 80.667,169.833 80.667 C 169.742 80.667,169.667 80.588,169.667 80.491 C 169.667 80.166,168.993 78.833,168.829 78.833 C 168.740 78.833,168.667 78.683,168.667 78.500 C 168.667 78.317,168.598 78.167,168.513 78.167 C 168.429 78.167,168.310 77.942,168.250 77.667 C 168.190 77.392,168.077 77.167,168.000 77.167 C 167.923 77.167,167.810 76.942,167.750 76.667 C 167.690 76.392,167.589 76.167,167.526 76.167 C 167.402 76.167,166.833 74.935,166.833 74.666 C 166.833 74.574,166.760 74.500,166.670 74.500 C 166.580 74.500,166.459 74.312,166.402 74.083 C 166.344 73.854,166.230 73.667,166.149 73.667 C 166.067 73.667,166.000 73.554,166.000 73.417 C 166.000 73.279,165.931 73.167,165.847 73.167 C 165.762 73.167,165.644 72.942,165.583 72.667 C 165.523 72.392,165.404 72.167,165.320 72.167 C 165.236 72.167,165.167 72.084,165.167 71.984 C 165.167 71.760,164.644 70.616,164.489 70.500 C 164.428 70.454,164.326 70.248,164.261 70.042 C 164.197 69.835,164.080 69.667,164.002 69.667 C 163.924 69.667,163.810 69.442,163.750 69.167 C 163.690 68.892,163.571 68.667,163.487 68.667 C 163.402 68.667,163.333 68.554,163.333 68.417 C 163.333 68.279,163.267 68.167,163.185 68.167 C 163.104 68.167,162.988 67.904,162.928 67.583 C 162.867 67.263,162.755 67.000,162.677 67.000 C 162.600 67.000,162.493 66.830,162.441 66.622 C 162.389 66.414,162.196 66.083,162.013 65.886 C 161.830 65.689,161.631 65.335,161.572 65.098 C 161.513 64.861,161.397 64.667,161.315 64.667 C 161.234 64.667,161.167 64.584,161.167 64.484 C 161.167 64.260,160.644 63.116,160.489 63.000 C 159.878 62.542,160.307 62.008,161.292 62.002 C 161.498 62.001,161.667 61.932,161.667 61.849 C 161.667 61.766,162.042 61.646,162.500 61.583 C 162.958 61.520,163.333 61.401,163.333 61.318 C 163.333 61.235,163.446 61.167,163.583 61.167 C 163.721 61.167,163.833 61.098,163.833 61.015 C 163.833 60.931,164.133 60.812,164.500 60.750 C 164.867 60.688,165.167 60.570,165.167 60.489 C 165.167 60.407,165.354 60.293,165.583 60.235 C 165.813 60.178,166.000 60.064,166.000 59.982 C 166.000 59.900,166.112 59.833,166.250 59.833 C 166.387 59.833,166.500 59.763,166.500 59.678 C 166.500 59.592,166.669 59.469,166.875 59.405 C 167.081 59.340,167.415 59.110,167.617 58.894 C 167.819 58.677,168.028 58.500,168.082 58.500 C 168.207 58.500,168.545 58.216,169.174 57.583 C 169.899 56.853,169.960 56.793,170.460 56.306 C 170.711 56.061,171.104 55.617,171.333 55.318 C 171.563 55.019,171.834 54.691,171.936 54.588 C 172.039 54.485,172.175 54.236,172.239 54.034 C 172.303 53.832,172.426 53.667,172.511 53.667 C 172.597 53.667,172.667 53.560,172.667 53.431 C 172.667 53.301,172.723 53.169,172.792 53.139 C 173.012 53.041,173.667 51.696,173.667 51.342 C 173.667 51.154,173.742 51.000,173.833 51.000 C 173.925 51.000,174.000 50.887,174.000 50.750 C 174.000 50.612,174.066 50.500,174.148 50.500 C 174.229 50.500,174.349 50.144,174.414 49.708 C 174.479 49.273,174.605 48.872,174.692 48.818 C 174.780 48.763,174.896 48.295,174.949 47.776 C 175.003 47.258,175.105 46.833,175.177 46.833 C 175.319 46.833,175.510 44.686,175.510 43.083 C 175.510 41.436,175.318 39.333,175.167 39.333 C 175.090 39.333,174.974 38.846,174.911 38.250 C 174.847 37.654,174.737 37.167,174.666 37.167 C 174.596 37.167,174.487 36.829,174.425 36.417 C 174.364 36.004,174.243 35.667,174.156 35.667 C 174.070 35.667,174.000 35.517,174.000 35.333 C 174.000 35.150,173.931 35.000,173.847 35.000 C 173.762 35.000,173.644 34.775,173.583 34.500 C 173.523 34.225,173.410 34.000,173.333 34.000 C 173.256 34.000,173.144 33.775,173.083 33.500 C 173.023 33.225,172.913 33.000,172.840 33.000 C 172.766 33.000,172.661 32.869,172.608 32.708 C 172.507 32.409,172.211 31.918,171.917 31.563 C 171.825 31.453,171.563 31.116,171.333 30.814 C 170.740 30.035,168.551 27.833,168.369 27.833 C 168.285 27.833,167.986 27.627,167.704 27.375 C 166.904 26.658,166.749 26.549,166.362 26.426 C 166.163 26.363,166.000 26.241,166.000 26.155 C 166.000 26.070,165.887 26.000,165.750 26.000 C 165.612 26.000,165.500 25.928,165.500 25.841 C 165.500 25.753,165.237 25.633,164.917 25.572 C 164.596 25.512,164.333 25.397,164.333 25.317 C 164.333 25.236,164.033 25.123,163.667 25.064 C 163.300 25.005,163.000 24.892,163.000 24.812 C 163.000 24.732,162.887 24.667,162.750 24.667 C 162.612 24.667,162.500 24.601,162.500 24.521 C 162.500 24.442,162.108 24.324,161.629 24.261 C 161.150 24.197,160.651 24.056,160.520 23.948 C 160.341 23.799,156.205 23.738,143.808 23.701 L 127.333 23.653 127.333 58.660 M250.333 58.667 L 250.333 93.667 254.333 93.667 L 258.333 93.667 258.333 58.667 L 258.333 23.667 254.333 23.667 L 250.333 23.667 250.333 58.667 M354.000 24.333 C 354.000 24.700,353.926 25.000,353.835 25.000 C 353.745 25.000,353.623 25.300,353.564 25.667 C 353.505 26.033,353.397 26.333,353.322 26.333 C 353.248 26.333,353.136 26.671,353.075 27.083 C 353.013 27.496,352.896 27.833,352.814 27.833 C 352.733 27.833,352.667 27.937,352.667 28.064 C 352.667 28.191,352.555 28.510,352.418 28.773 C 352.281 29.035,352.168 29.419,352.168 29.625 C 352.167 29.831,352.101 30.000,352.021 30.000 C 351.941 30.000,351.828 30.300,351.769 30.667 C 351.711 31.033,351.589 31.333,351.498 31.333 C 351.407 31.333,351.333 31.516,351.333 31.740 C 351.333 31.964,351.265 32.189,351.181 32.241 C 351.097 32.293,350.978 32.635,350.917 33.001 C 350.855 33.367,350.736 33.667,350.652 33.667 C 350.568 33.667,350.500 33.824,350.500 34.016 C 350.500 34.335,350.206 35.139,349.822 35.868 C 349.740 36.024,349.624 36.455,349.565 36.826 C 349.506 37.197,349.402 37.500,349.333 37.500 C 349.265 37.500,349.161 37.800,349.103 38.167 C 349.044 38.533,348.922 38.833,348.831 38.833 C 348.741 38.833,348.667 39.021,348.667 39.250 C 348.667 39.479,348.596 39.667,348.510 39.667 C 348.424 39.667,348.303 40.004,348.241 40.417 C 348.179 40.829,348.063 41.167,347.983 41.167 C 347.903 41.167,347.789 41.467,347.731 41.833 C 347.672 42.200,347.559 42.500,347.479 42.500 C 347.399 42.500,347.333 42.688,347.333 42.917 C 347.333 43.146,347.265 43.333,347.182 43.333 C 347.099 43.333,346.980 43.708,346.917 44.167 C 346.854 44.625,346.735 45.000,346.653 45.000 C 346.571 45.000,346.456 45.300,346.397 45.667 C 346.339 46.033,346.225 46.333,346.145 46.333 C 346.065 46.333,346.000 46.437,346.000 46.564 C 346.000 46.691,345.888 47.010,345.751 47.273 C 345.614 47.535,345.502 47.877,345.501 48.032 C 345.500 48.187,345.429 48.357,345.343 48.411 C 345.257 48.464,345.136 48.844,345.074 49.254 C 345.013 49.664,344.896 50.000,344.814 50.000 C 344.733 50.000,344.667 50.188,344.667 50.417 C 344.667 50.646,344.593 50.833,344.502 50.833 C 344.411 50.833,344.289 51.133,344.231 51.500 C 344.172 51.867,344.067 52.167,343.998 52.167 C 343.928 52.167,343.821 52.504,343.759 52.917 C 343.697 53.329,343.576 53.667,343.490 53.667 C 343.404 53.667,343.333 53.771,343.333 53.898 C 343.333 54.025,343.221 54.343,343.084 54.606 C 342.947 54.869,342.835 55.252,342.834 55.458 C 342.834 55.665,342.758 55.833,342.667 55.833 C 342.575 55.833,342.500 55.991,342.500 56.183 C 342.500 56.501,342.206 57.305,341.822 58.034 C 341.740 58.191,341.624 58.622,341.565 58.993 C 341.506 59.363,341.399 59.667,341.327 59.667 C 341.255 59.667,341.145 59.967,341.083 60.333 C 341.021 60.700,340.902 61.000,340.819 61.000 C 340.735 61.000,340.667 61.146,340.667 61.323 C 340.667 61.501,340.596 61.691,340.510 61.744 C 340.423 61.797,340.302 62.177,340.241 62.587 C 340.179 62.998,340.069 63.333,339.996 63.333 C 339.923 63.333,339.812 63.633,339.750 64.000 C 339.688 64.367,339.569 64.667,339.485 64.667 C 339.402 64.667,339.333 64.854,339.333 65.083 C 339.333 65.313,339.267 65.500,339.186 65.500 C 339.104 65.500,338.987 65.837,338.925 66.250 C 338.864 66.662,338.749 67.000,338.671 67.000 C 338.593 67.000,338.479 67.300,338.417 67.667 C 338.355 68.033,338.236 68.333,338.152 68.333 C 338.068 68.333,338.000 68.521,338.000 68.750 C 338.000 68.979,337.932 69.167,337.849 69.167 C 337.766 69.167,337.646 69.542,337.583 70.000 C 337.520 70.458,337.402 70.833,337.320 70.833 C 337.238 70.833,337.123 71.133,337.064 71.500 C 337.005 71.867,336.892 72.167,336.812 72.167 C 336.732 72.167,336.667 72.312,336.667 72.490 C 336.667 72.668,336.600 72.855,336.519 72.905 C 336.438 72.955,336.322 73.256,336.263 73.574 C 336.203 73.892,336.045 74.362,335.911 74.618 C 335.778 74.874,335.668 75.252,335.668 75.458 C 335.667 75.665,335.592 75.833,335.500 75.833 C 335.408 75.833,335.333 76.021,335.333 76.250 C 335.333 76.479,335.259 76.667,335.169 76.667 C 335.078 76.667,334.956 76.967,334.897 77.333 C 334.839 77.700,334.734 78.000,334.664 78.000 C 334.595 78.000,334.487 78.338,334.425 78.750 C 334.364 79.162,334.243 79.500,334.156 79.500 C 334.070 79.500,334.000 79.688,334.000 79.917 C 334.000 80.146,333.932 80.333,333.848 80.333 C 333.764 80.333,333.645 80.633,333.583 81.000 C 333.521 81.367,333.412 81.667,333.340 81.667 C 333.268 81.667,333.164 81.948,333.109 82.293 C 333.054 82.637,332.851 83.246,332.657 83.647 C 332.464 84.047,332.265 84.628,332.214 84.937 C 332.164 85.247,332.064 85.500,331.993 85.500 C 331.921 85.500,331.812 85.800,331.750 86.167 C 331.688 86.533,331.569 86.833,331.485 86.833 C 331.402 86.833,331.333 86.979,331.333 87.157 C 331.333 87.335,331.263 87.524,331.176 87.577 C 331.090 87.631,330.969 88.010,330.907 88.421 C 330.846 88.831,330.739 89.167,330.669 89.167 C 330.600 89.167,330.495 89.467,330.436 89.833 C 330.377 90.200,330.255 90.500,330.165 90.500 C 330.074 90.500,330.000 90.688,330.000 90.917 C 330.000 91.146,329.934 91.333,329.852 91.333 C 329.771 91.333,329.654 91.671,329.592 92.083 C 329.530 92.496,329.409 92.833,329.323 92.833 C 329.237 92.833,329.167 93.021,329.167 93.250 L 329.167 93.667 333.167 93.667 L 337.167 93.667 337.167 93.250 C 337.167 93.021,337.237 92.833,337.323 92.833 C 337.409 92.833,337.530 92.496,337.592 92.083 C 337.654 91.671,337.771 91.333,337.852 91.333 C 337.934 91.333,338.000 91.229,338.000 91.102 C 338.000 90.975,338.112 90.657,338.249 90.394 C 338.386 90.131,338.498 89.748,338.499 89.542 C 338.500 89.335,338.565 89.167,338.645 89.167 C 338.725 89.167,338.839 88.868,338.897 88.502 C 338.955 88.137,339.148 87.580,339.325 87.265 C 339.502 86.950,339.697 86.424,339.759 86.096 C 339.820 85.768,339.932 85.500,340.008 85.500 C 340.084 85.500,340.197 85.162,340.259 84.750 C 340.321 84.337,340.438 84.000,340.519 84.000 C 340.600 84.000,340.667 83.854,340.667 83.677 C 340.667 83.499,340.737 83.309,340.824 83.256 C 340.910 83.203,341.031 82.823,341.093 82.413 C 341.154 82.002,341.270 81.667,341.350 81.667 C 341.430 81.667,341.544 81.367,341.603 81.000 C 341.661 80.633,341.775 80.333,341.855 80.333 C 341.935 80.333,342.000 80.146,342.000 79.917 C 342.000 79.688,342.070 79.500,342.156 79.500 C 342.243 79.500,342.364 79.162,342.425 78.750 C 342.487 78.337,342.603 78.000,342.684 78.000 C 342.764 78.000,342.877 77.700,342.936 77.333 C 342.995 76.967,343.108 76.667,343.188 76.667 C 343.268 76.667,343.333 76.479,343.333 76.250 C 343.333 76.021,343.408 75.833,343.500 75.833 C 343.592 75.833,343.667 75.665,343.668 75.458 C 343.668 75.252,343.781 74.867,343.919 74.603 C 344.057 74.339,344.216 73.832,344.273 73.478 C 344.330 73.123,344.441 72.833,344.521 72.833 C 344.601 72.833,344.667 72.688,344.667 72.510 C 344.667 72.332,344.742 72.140,344.833 72.083 C 344.925 72.027,345.000 71.854,345.001 71.698 C 345.002 71.543,345.115 71.200,345.253 70.936 C 345.390 70.672,345.549 70.166,345.606 69.811 C 345.663 69.457,345.775 69.167,345.855 69.167 C 345.935 69.167,346.000 68.979,346.000 68.750 C 346.000 68.521,346.068 68.333,346.152 68.333 C 346.236 68.333,346.355 68.033,346.417 67.667 C 346.479 67.300,346.589 67.000,346.662 67.000 C 346.736 67.000,346.846 66.662,346.908 66.250 C 346.970 65.837,347.091 65.500,347.177 65.500 C 347.263 65.500,347.333 65.396,347.333 65.269 C 347.333 65.142,347.445 64.823,347.582 64.561 C 347.719 64.298,347.832 63.915,347.832 63.708 C 347.833 63.502,347.901 63.333,347.984 63.333 C 348.067 63.333,348.187 62.958,348.250 62.500 C 348.313 62.042,348.414 61.667,348.475 61.667 C 348.640 61.667,349.004 60.772,349.114 60.096 C 349.167 59.768,349.269 59.500,349.340 59.500 C 349.412 59.500,349.521 59.200,349.583 58.833 C 349.645 58.467,349.764 58.167,349.848 58.167 C 349.932 58.167,350.000 58.021,350.000 57.843 C 350.000 57.665,350.071 57.476,350.157 57.423 C 350.243 57.369,350.364 56.990,350.426 56.579 C 350.487 56.169,350.603 55.833,350.684 55.833 C 350.764 55.833,350.877 55.533,350.936 55.167 C 350.995 54.800,351.108 54.500,351.188 54.500 C 351.268 54.500,351.333 54.313,351.333 54.083 C 351.333 53.854,351.400 53.667,351.481 53.667 C 351.562 53.667,351.679 53.329,351.741 52.917 C 351.803 52.504,351.918 52.167,351.996 52.167 C 352.074 52.167,352.188 51.867,352.250 51.500 C 352.312 51.133,352.431 50.833,352.515 50.833 C 352.598 50.833,352.667 50.646,352.667 50.417 C 352.667 50.188,352.742 50.000,352.833 50.000 C 352.925 50.000,353.000 49.831,353.001 49.625 C 353.002 49.419,353.115 49.034,353.253 48.770 C 353.390 48.505,353.549 47.999,353.606 47.645 C 353.663 47.290,353.775 47.000,353.855 47.000 C 353.935 47.000,354.000 46.813,354.000 46.583 C 354.000 46.354,354.068 46.167,354.152 46.167 C 354.236 46.167,354.355 45.867,354.417 45.500 C 354.479 45.133,354.593 44.833,354.671 44.833 C 354.749 44.833,354.864 44.496,354.925 44.083 C 354.987 43.671,355.104 43.333,355.186 43.333 C 355.267 43.333,355.333 43.188,355.333 43.010 C 355.333 42.832,355.402 42.644,355.485 42.592 C 355.569 42.541,355.688 42.199,355.750 41.832 C 355.812 41.466,355.921 41.167,355.993 41.167 C 356.065 41.167,356.172 40.868,356.230 40.502 C 356.289 40.137,356.481 39.580,356.658 39.265 C 356.835 38.950,357.030 38.424,357.092 38.096 C 357.153 37.768,357.263 37.500,357.336 37.500 C 357.409 37.500,357.520 37.125,357.583 36.667 C 357.646 36.208,357.766 35.833,357.849 35.833 C 357.932 35.833,358.000 35.679,358.000 35.490 C 358.000 34.920,358.282 35.280,358.397 35.996 C 358.456 36.365,358.570 36.667,358.650 36.667 C 358.730 36.667,358.846 37.004,358.908 37.417 C 358.970 37.829,359.091 38.167,359.177 38.167 C 359.263 38.167,359.333 38.354,359.333 38.583 C 359.333 38.813,359.399 39.000,359.479 39.000 C 359.559 39.000,359.672 39.300,359.731 39.667 C 359.789 40.033,359.904 40.333,359.986 40.333 C 360.068 40.333,360.187 40.708,360.250 41.167 C 360.313 41.625,360.433 42.000,360.516 42.000 C 360.599 42.000,360.667 42.188,360.667 42.417 C 360.667 42.646,360.735 42.833,360.819 42.833 C 360.902 42.833,361.021 43.133,361.083 43.500 C 361.145 43.867,361.260 44.167,361.338 44.167 C 361.416 44.167,361.530 44.504,361.592 44.917 C 361.654 45.329,361.771 45.667,361.852 45.667 C 361.934 45.667,362.000 45.854,362.000 46.083 C 362.000 46.313,362.065 46.500,362.145 46.500 C 362.225 46.500,362.339 46.800,362.397 47.167 C 362.456 47.533,362.570 47.833,362.650 47.833 C 362.730 47.833,362.846 48.169,362.907 48.579 C 362.969 48.990,363.090 49.369,363.176 49.423 C 363.263 49.476,363.333 49.665,363.333 49.843 C 363.333 50.021,363.399 50.167,363.479 50.167 C 363.559 50.167,363.672 50.467,363.731 50.833 C 363.789 51.200,363.904 51.500,363.986 51.500 C 364.068 51.500,364.187 51.875,364.250 52.333 C 364.313 52.792,364.433 53.167,364.516 53.167 C 364.599 53.167,364.667 53.354,364.667 53.583 C 364.667 53.813,364.741 54.000,364.831 54.000 C 364.922 54.000,365.044 54.300,365.103 54.667 C 365.161 55.033,365.266 55.333,365.336 55.333 C 365.405 55.333,365.513 55.671,365.575 56.083 C 365.636 56.496,365.757 56.833,365.844 56.833 C 365.930 56.833,366.000 57.021,366.000 57.250 C 366.000 57.479,366.074 57.667,366.165 57.667 C 366.255 57.667,366.377 57.967,366.436 58.333 C 366.495 58.700,366.600 59.000,366.669 59.000 C 366.739 59.000,366.846 59.336,366.907 59.746 C 366.969 60.156,367.090 60.536,367.176 60.589 C 367.263 60.643,367.333 60.869,367.333 61.093 C 367.333 61.317,367.407 61.500,367.498 61.500 C 367.589 61.500,367.711 61.800,367.769 62.167 C 367.828 62.533,367.937 62.833,368.011 62.833 C 368.085 62.833,368.197 63.171,368.259 63.583 C 368.321 63.996,368.438 64.333,368.519 64.333 C 368.600 64.333,368.667 64.521,368.667 64.750 C 368.667 64.979,368.741 65.167,368.831 65.167 C 368.922 65.167,369.044 65.467,369.103 65.833 C 369.161 66.200,369.266 66.500,369.336 66.500 C 369.405 66.500,369.513 66.836,369.574 67.246 C 369.636 67.656,369.757 68.036,369.843 68.089 C 369.929 68.143,370.000 68.332,370.000 68.510 C 370.000 68.688,370.068 68.833,370.152 68.833 C 370.236 68.833,370.355 69.133,370.417 69.500 C 370.479 69.867,370.589 70.167,370.662 70.167 C 370.736 70.167,370.846 70.502,370.907 70.913 C 370.969 71.323,371.090 71.703,371.176 71.756 C 371.263 71.809,371.333 72.036,371.333 72.260 C 371.333 72.484,371.407 72.667,371.498 72.667 C 371.589 72.667,371.711 72.967,371.769 73.333 C 371.828 73.700,371.933 74.000,372.002 74.000 C 372.072 74.000,372.179 74.338,372.241 74.750 C 372.303 75.162,372.424 75.500,372.510 75.500 C 372.596 75.500,372.667 75.688,372.667 75.917 C 372.667 76.146,372.741 76.333,372.831 76.333 C 372.922 76.333,373.044 76.633,373.103 77.000 C 373.161 77.367,373.265 77.667,373.333 77.667 C 373.402 77.667,373.506 77.970,373.565 78.341 C 373.624 78.711,373.740 79.143,373.822 79.299 C 374.206 80.028,374.500 80.832,374.500 81.150 C 374.500 81.343,374.568 81.500,374.652 81.500 C 374.736 81.500,374.855 81.800,374.917 82.166 C 374.978 82.532,375.097 82.874,375.181 82.926 C 375.265 82.977,375.333 83.203,375.333 83.427 C 375.333 83.650,375.407 83.833,375.498 83.833 C 375.589 83.833,375.711 84.133,375.769 84.500 C 375.828 84.867,375.941 85.167,376.021 85.167 C 376.101 85.167,376.166 85.298,376.166 85.458 C 376.165 85.805,376.699 87.380,376.858 87.500 C 376.919 87.546,377.022 87.865,377.087 88.209 C 377.151 88.552,377.261 88.833,377.331 88.833 C 377.400 88.833,377.506 89.137,377.565 89.507 C 377.624 89.878,377.740 90.309,377.822 90.466 C 378.206 91.195,378.500 91.999,378.500 92.317 C 378.500 92.509,378.570 92.667,378.656 92.667 C 378.741 92.667,378.835 92.873,378.864 93.125 L 378.917 93.583 382.958 93.628 L 387.000 93.673 387.000 93.248 C 387.000 93.014,386.895 92.783,386.767 92.734 C 386.639 92.684,386.485 92.314,386.424 91.909 C 386.364 91.505,386.243 91.131,386.157 91.077 C 386.071 91.024,386.000 90.835,386.000 90.657 C 386.000 90.479,385.930 90.333,385.844 90.333 C 385.757 90.333,385.636 89.996,385.575 89.583 C 385.513 89.171,385.404 88.833,385.333 88.833 C 385.262 88.833,385.153 88.562,385.090 88.229 C 385.028 87.897,384.914 87.504,384.836 87.354 C 384.455 86.623,384.167 85.831,384.167 85.516 C 384.167 85.324,384.100 85.167,384.019 85.167 C 383.938 85.167,383.821 84.829,383.759 84.417 C 383.697 84.004,383.576 83.667,383.490 83.667 C 383.404 83.667,383.333 83.521,383.333 83.343 C 383.333 83.165,383.265 82.977,383.181 82.926 C 383.097 82.874,382.978 82.532,382.917 82.166 C 382.855 81.800,382.745 81.500,382.673 81.500 C 382.601 81.500,382.495 81.201,382.436 80.836 C 382.378 80.470,382.182 79.907,382.000 79.583 C 381.818 79.260,381.622 78.697,381.564 78.331 C 381.505 77.966,381.399 77.667,381.327 77.667 C 381.255 77.667,381.145 77.367,381.083 77.001 C 381.022 76.635,380.903 76.293,380.819 76.241 C 380.735 76.189,380.667 76.001,380.667 75.823 C 380.667 75.646,380.596 75.500,380.510 75.500 C 380.424 75.500,380.303 75.162,380.241 74.750 C 380.179 74.338,380.062 74.000,379.981 74.000 C 379.900 74.000,379.833 73.852,379.833 73.670 C 379.833 73.310,379.342 71.968,379.161 71.833 C 379.099 71.787,378.993 71.450,378.926 71.083 C 378.859 70.717,378.746 70.342,378.675 70.250 C 378.604 70.158,378.494 69.858,378.430 69.583 C 378.277 68.921,377.946 68.167,377.808 68.167 C 377.748 68.167,377.646 67.792,377.583 67.333 C 377.520 66.875,377.401 66.500,377.318 66.500 C 377.235 66.500,377.166 66.331,377.166 66.125 C 377.165 65.919,377.053 65.535,376.916 65.273 C 376.779 65.010,376.667 64.691,376.667 64.564 C 376.667 64.437,376.600 64.333,376.519 64.333 C 376.438 64.333,376.321 63.996,376.259 63.583 C 376.197 63.171,376.076 62.833,375.990 62.833 C 375.904 62.833,375.833 62.685,375.833 62.503 C 375.833 62.133,375.338 60.795,375.153 60.667 C 375.087 60.621,374.979 60.227,374.914 59.792 C 374.849 59.356,374.737 59.000,374.666 59.000 C 374.595 59.000,374.487 58.732,374.425 58.404 C 374.364 58.076,374.169 57.550,373.992 57.235 C 373.815 56.920,373.622 56.363,373.564 55.998 C 373.505 55.632,373.392 55.333,373.312 55.333 C 373.232 55.333,373.166 55.165,373.166 54.958 C 373.165 54.752,373.053 54.369,372.916 54.106 C 372.779 53.843,372.667 53.525,372.667 53.398 C 372.667 53.271,372.600 53.167,372.519 53.167 C 372.438 53.167,372.321 52.829,372.259 52.417 C 372.197 52.004,372.076 51.667,371.990 51.667 C 371.904 51.667,371.833 51.518,371.833 51.337 C 371.833 50.966,371.338 49.628,371.153 49.500 C 371.087 49.454,370.979 49.060,370.914 48.625 C 370.849 48.190,370.736 47.833,370.662 47.833 C 370.589 47.833,370.479 47.534,370.417 47.168 C 370.355 46.801,370.236 46.459,370.152 46.408 C 370.068 46.356,370.000 46.168,370.000 45.990 C 370.000 45.812,369.930 45.667,369.844 45.667 C 369.757 45.667,369.636 45.329,369.575 44.917 C 369.513 44.504,369.396 44.167,369.314 44.167 C 369.233 44.167,369.166 43.998,369.166 43.792 C 369.165 43.585,369.053 43.202,368.916 42.939 C 368.779 42.677,368.667 42.358,368.667 42.231 C 368.667 42.104,368.601 42.000,368.521 42.000 C 368.441 42.000,368.330 41.710,368.273 41.355 C 368.216 41.001,368.057 40.495,367.919 40.230 C 367.781 39.966,367.668 39.634,367.668 39.492 C 367.666 39.168,367.288 38.336,367.141 38.335 C 367.080 38.334,366.980 37.958,366.917 37.500 C 366.854 37.042,366.735 36.667,366.653 36.667 C 366.571 36.667,366.456 36.367,366.397 36.000 C 366.339 35.633,366.225 35.333,366.145 35.333 C 366.065 35.333,366.000 35.146,366.000 34.917 C 366.000 34.688,365.934 34.500,365.852 34.500 C 365.771 34.500,365.654 34.162,365.592 33.750 C 365.530 33.337,365.416 33.000,365.338 33.000 C 365.260 33.000,365.145 32.700,365.083 32.333 C 365.021 31.967,364.902 31.667,364.819 31.667 C 364.735 31.667,364.667 31.479,364.667 31.250 C 364.667 31.021,364.599 30.833,364.516 30.833 C 364.433 30.833,364.313 30.458,364.250 30.000 C 364.187 29.542,364.068 29.167,363.986 29.167 C 363.904 29.167,363.789 28.867,363.731 28.500 C 363.672 28.133,363.559 27.833,363.479 27.833 C 363.399 27.833,363.333 27.646,363.333 27.417 C 363.333 27.188,363.263 27.000,363.177 27.000 C 363.091 27.000,362.970 26.662,362.908 26.250 C 362.846 25.837,362.730 25.500,362.650 25.500 C 362.570 25.500,362.456 25.200,362.397 24.833 C 362.339 24.467,362.225 24.167,362.145 24.167 C 362.065 24.167,362.000 24.054,362.000 23.917 C 362.000 23.701,361.444 23.667,358.000 23.667 L 354.000 23.667 354.000 24.333 " stroke="none" fill="#040404" fill-rule="evenodd"></path><path id="path2" d="" stroke="none" fill="#0898a4" fill-rule="evenodd"></path><path id="path3" d="" stroke="none" fill="#085038" fill-rule="evenodd"></path><path id="path4" d="" stroke="none" fill="#08043c" fill-rule="evenodd"></path><path id="path5" d="" stroke="none" fill="#0c0404" fill-rule="evenodd"></path><path id="path6" d="" stroke="none" fill="#080404" fill-rule="evenodd"></path><path id="path7" d="" stroke="none" fill="#080404" fill-rule="evenodd"></path><path id="path8" d="" stroke="none" fill="#080404" fill-rule="evenodd"></path></g></svg>